<svg id="visual" viewBox="0 0 960 200" width="960" height="200" xmlns="http://www.w3.org/2000/svg" xmlns:xlink="http://www.w3.org/1999/xlink" version="1.1"><rect x="0" y="0" width="960" height="200" fill="#f0fdfa"></rect><path d="M0 68L8.8 65.8C17.7 63.7 35.3 59.3 53.2 62.3C71 65.3 89 75.7 106.8 76.7C124.7 77.7 142.3 69.3 160 65.2C177.7 61 195.3 61 213.2 63.5C231 66 249 71 266.8 67.5C284.7 64 302.3 52 320 49.7C337.7 47.3 355.3 54.7 373.2 61.5C391 68.3 409 74.7 426.8 79C444.7 83.3 462.3 85.7 480 81.5C497.7 77.3 515.3 66.7 533.2 65.8C551 65 569 74 586.8 73C604.7 72 622.3 61 640 58C657.7 55 675.3 60 693.2 65.8C711 71.7 729 78.3 746.8 78.8C764.7 79.3 782.3 73.7 800 75.3C817.7 77 835.3 86 853.2 87.3C871 88.7 889 82.3 906.8 79C924.7 75.7 942.3 75.3 951.2 75.2L960 75L960 201L951.2 201C942.3 201 924.7 201 906.8 201C889 201 871 201 853.2 201C835.3 201 817.7 201 800 201C782.3 201 764.7 201 746.8 201C729 201 711 201 693.2 201C675.3 201 657.7 201 640 201C622.3 201 604.7 201 586.8 201C569 201 551 201 533.2 201C515.3 201 497.7 201 480 201C462.3 201 444.7 201 426.8 201C409 201 391 201 373.2 201C355.3 201 337.7 201 320 201C302.3 201 284.7 201 266.8 201C249 201 231 201 213.2 201C195.3 201 177.7 201 160 201C142.3 201 124.7 201 106.8 201C89 201 71 201 53.2 201C35.3 201 17.7 201 8.8 201L0 201Z" fill="#333a59"></path><path d="M0 90L8.8 90.8C17.7 91.7 35.3 93.3 53.2 93.8C71 94.3 89 93.7 106.8 90.5C124.7 87.3 142.3 81.7 160 78.2C177.7 74.7 195.3 73.3 213.2 71C231 68.7 249 65.3 266.8 68.5C284.7 71.7 302.3 81.3 320 87.7C337.7 94 355.3 97 373.2 92.8C391 88.7 409 77.3 426.8 72.3C444.7 67.3 462.3 68.7 480 71.7C497.7 74.7 515.3 79.3 533.2 86.2C551 93 569 102 586.8 104.3C604.7 106.7 622.3 102.3 640 97.2C657.7 92 675.3 86 693.2 85C711 84 729 88 746.8 85.7C764.7 83.3 782.3 74.7 800 74.2C817.7 73.7 835.3 81.3 853.2 87.8C871 94.3 889 99.7 906.8 102.5C924.7 105.3 942.3 105.7 951.2 105.8L960 106L960 201L951.2 201C942.3 201 924.7 201 906.8 201C889 201 871 201 853.2 201C835.3 201 817.7 201 800 201C782.3 201 764.7 201 746.8 201C729 201 711 201 693.2 201C675.3 201 657.7 201 640 201C622.3 201 604.7 201 586.8 201C569 201 551 201 533.2 201C515.3 201 497.7 201 480 201C462.3 201 444.7 201 426.8 201C409 201 391 201 373.2 201C355.3 201 337.7 201 320 201C302.3 201 284.7 201 266.8 201C249 201 231 201 213.2 201C195.3 201 177.7 201 160 201C142.3 201 124.7 201 106.8 201C89 201 71 201 53.2 201C35.3 201 17.7 201 8.8 201L0 201Z" fill="#2e334f"></path><path d="M0 121L8.8 117.8C17.7 114.7 35.3 108.3 53.2 106.3C71 104.3 89 106.7 106.8 108C124.7 109.3 142.3 109.7 160 106.3C177.7 103 195.3 96 213.2 95C231 94 249 99 266.8 105C284.7 111 302.3 118 320 118.5C337.7 119 355.3 113 373.2 108.2C391 103.3 409 99.7 426.8 101.3C444.7 103 462.3 110 480 108.8C497.7 107.7 515.3 98.3 533.2 97.7C551 97 569 105 586.8 109.3C604.7 113.7 622.3 114.3 640 112.2C657.7 110 675.3 105 693.2 107.7C711 110.3 729 120.7 746.8 125.5C764.7 130.3 782.3 129.7 800 122.7C817.7 115.7 835.3 102.3 853.2 100C871 97.7 889 106.3 906.8 105.7C924.7 105 942.3 95 951.2 90L960 85L960 201L951.2 201C942.3 201 924.7 201 906.8 201C889 201 871 201 853.2 201C835.3 201 817.7 201 800 201C782.3 201 764.7 201 746.8 201C729 201 711 201 693.2 201C675.3 201 657.7 201 640 201C622.3 201 604.7 201 586.8 201C569 201 551 201 533.2 201C515.3 201 497.7 201 480 201C462.3 201 444.7 201 426.8 201C409 201 391 201 373.2 201C355.3 201 337.7 201 320 201C302.3 201 284.7 201 266.8 201C249 201 231 201 213.2 201C195.3 201 177.7 201 160 201C142.3 201 124.7 201 106.8 201C89 201 71 201 53.2 201C35.3 201 17.7 201 8.8 201L0 201Z" fill="#292d45"></path><path d="M0 125L8.8 124.2C17.7 123.3 35.3 121.7 53.2 124.7C71 127.7 89 135.3 106.8 135C124.7 134.7 142.3 126.3 160 127C177.7 127.7 195.3 137.3 213.2 136.8C231 136.3 249 125.7 266.8 123.3C284.7 121 302.3 127 320 126.2C337.7 125.3 355.3 117.7 373.2 113.5C391 109.3 409 108.7 426.8 110.8C444.7 113 462.3 118 480 119.5C497.7 121 515.3 119 533.2 121.5C551 124 569 131 586.8 132.7C604.7 134.3 622.3 130.7 640 129.8C657.7 129 675.3 131 693.2 130.8C711 130.7 729 128.3 746.8 130.7C764.7 133 782.3 140 800 142.8C817.7 145.7 835.3 144.3 853.2 141.2C871 138 889 133 906.8 128.2C924.7 123.3 942.3 118.7 951.2 116.3L960 114L960 201L951.2 201C942.3 201 924.7 201 906.8 201C889 201 871 201 853.2 201C835.3 201 817.7 201 800 201C782.3 201 764.7 201 746.8 201C729 201 711 201 693.2 201C675.3 201 657.7 201 640 201C622.3 201 604.7 201 586.8 201C569 201 551 201 533.2 201C515.3 201 497.7 201 480 201C462.3 201 444.7 201 426.8 201C409 201 391 201 373.2 201C355.3 201 337.7 201 320 201C302.3 201 284.7 201 266.8 201C249 201 231 201 213.2 201C195.3 201 177.7 201 160 201C142.3 201 124.7 201 106.8 201C89 201 71 201 53.2 201C35.3 201 17.7 201 8.8 201L0 201Z" fill="#23273b"></path><path d="M0 141L8.8 140.8C17.7 140.7 35.3 140.3 53.2 139.8C71 139.3 89 138.7 106.8 141.8C124.7 145 142.3 152 160 153.3C177.7 154.7 195.3 150.3 213.2 150.8C231 151.3 249 156.7 266.8 156.8C284.7 157 302.3 152 320 150C337.7 148 355.3 149 373.2 147.2C391 145.3 409 140.7 426.8 137.7C444.7 134.7 462.3 133.3 480 135C497.7 136.7 515.3 141.3 533.2 144.8C551 148.3 569 150.7 586.8 151.3C604.7 152 622.3 151 640 151C657.7 151 675.3 152 693.2 150.2C711 148.3 729 143.7 746.8 145.2C764.7 146.7 782.3 154.3 800 153.3C817.7 152.3 835.3 142.7 853.2 137.8C871 133 889 133 906.8 136.5C924.7 140 942.3 147 951.2 150.5L960 154L960 201L951.2 201C942.3 201 924.7 201 906.8 201C889 201 871 201 853.2 201C835.3 201 817.7 201 800 201C782.3 201 764.7 201 746.8 201C729 201 711 201 693.2 201C675.3 201 657.7 201 640 201C622.3 201 604.7 201 586.8 201C569 201 551 201 533.2 201C515.3 201 497.7 201 480 201C462.3 201 444.7 201 426.8 201C409 201 391 201 373.2 201C355.3 201 337.7 201 320 201C302.3 201 284.7 201 266.8 201C249 201 231 201 213.2 201C195.3 201 177.7 201 160 201C142.3 201 124.7 201 106.8 201C89 201 71 201 53.2 201C35.3 201 17.7 201 8.8 201L0 201Z" fill="#1e2132"></path><path d="M0 165L8.8 164.7C17.7 164.3 35.3 163.7 53.2 163.5C71 163.3 89 163.7 106.8 163.8C124.7 164 142.3 164 160 166C177.7 168 195.3 172 213.2 173.3C231 174.7 249 173.3 266.8 172C284.7 170.7 302.3 169.3 320 170.5C337.7 171.7 355.3 175.3 373.2 174.5C391 173.7 409 168.3 426.8 166.5C444.7 164.7 462.3 166.3 480 168.5C497.7 170.7 515.3 173.3 533.2 171.3C551 169.3 569 162.7 586.8 160.7C604.7 158.7 622.3 161.3 640 165C657.7 168.7 675.3 173.3 693.2 174.7C711 176 729 174 746.8 173C764.7 172 782.3 172 800 173.5C817.7 175 835.3 178 853.2 176.3C871 174.7 889 168.3 906.8 167.5C924.7 166.7 942.3 171.3 951.2 173.7L960 176L960 201L951.2 201C942.3 201 924.7 201 906.8 201C889 201 871 201 853.2 201C835.3 201 817.7 201 800 201C782.3 201 764.7 201 746.8 201C729 201 711 201 693.2 201C675.3 201 657.7 201 640 201C622.3 201 604.7 201 586.8 201C569 201 551 201 533.2 201C515.3 201 497.7 201 480 201C462.3 201 444.7 201 426.8 201C409 201 391 201 373.2 201C355.3 201 337.7 201 320 201C302.3 201 284.7 201 266.8 201C249 201 231 201 213.2 201C195.3 201 177.7 201 160 201C142.3 201 124.7 201 106.8 201C89 201 71 201 53.2 201C35.3 201 17.7 201 8.8 201L0 201Z" fill="#191b29"></path></svg>