<svg id="visual" viewBox="0 0 960 300" width="960" height="300" xmlns="http://www.w3.org/2000/svg" xmlns:xlink="http://www.w3.org/1999/xlink" version="1.1"><rect x="0" y="0" width="960" height="300" fill="#191b29"></rect><path d="M0 58L22.8 58.8C45.7 59.7 91.3 61.3 137 75C182.7 88.7 228.3 114.3 274 115.2C319.7 116 365.3 92 411.2 91.5C457 91 503 114 548.8 118.2C594.7 122.3 640.3 107.7 686 96.8C731.7 86 777.3 79 823 79.2C868.7 79.3 914.3 86.7 937.2 90.3L960 94L960 301L937.2 301C914.3 301 868.7 301 823 301C777.3 301 731.7 301 686 301C640.3 301 594.7 301 548.8 301C503 301 457 301 411.2 301C365.3 301 319.7 301 274 301C228.3 301 182.7 301 137 301C91.3 301 45.7 301 22.8 301L0 301Z" fill="#45dacc"></path><path d="M0 107L22.8 104.7C45.7 102.3 91.3 97.7 137 100.7C182.7 103.7 228.3 114.3 274 127.8C319.7 141.3 365.3 157.7 411.2 161.7C457 165.7 503 157.3 548.8 144.8C594.7 132.3 640.3 115.7 686 113C731.7 110.3 777.3 121.7 823 129.3C868.7 137 914.3 141 937.2 143L960 145L960 301L937.2 301C914.3 301 868.7 301 823 301C777.3 301 731.7 301 686 301C640.3 301 594.7 301 548.8 301C503 301 457 301 411.2 301C365.3 301 319.7 301 274 301C228.3 301 182.7 301 137 301C91.3 301 45.7 301 22.8 301L0 301Z" fill="#3bd1c4"></path><path d="M0 150L22.8 159.2C45.7 168.3 91.3 186.7 137 187.3C182.7 188 228.3 171 274 167C319.7 163 365.3 172 411.2 178C457 184 503 187 548.8 189.3C594.7 191.7 640.3 193.3 686 193.7C731.7 194 777.3 193 823 193C868.7 193 914.3 194 937.2 194.5L960 195L960 301L937.2 301C914.3 301 868.7 301 823 301C777.3 301 731.7 301 686 301C640.3 301 594.7 301 548.8 301C503 301 457 301 411.2 301C365.3 301 319.7 301 274 301C228.3 301 182.7 301 137 301C91.3 301 45.7 301 22.8 301L0 301Z" fill="#30c9bc"></path><path d="M0 193L22.8 196C45.7 199 91.3 205 137 209.3C182.7 213.7 228.3 216.3 274 212.2C319.7 208 365.3 197 411.2 194.7C457 192.3 503 198.7 548.8 205.8C594.7 213 640.3 221 686 224.7C731.7 228.3 777.3 227.7 823 228.7C868.7 229.7 914.3 232.3 937.2 233.7L960 235L960 301L937.2 301C914.3 301 868.7 301 823 301C777.3 301 731.7 301 686 301C640.3 301 594.7 301 548.8 301C503 301 457 301 411.2 301C365.3 301 319.7 301 274 301C228.3 301 182.7 301 137 301C91.3 301 45.7 301 22.8 301L0 301Z" fill="#24c1b4"></path><path d="M0 269L22.8 261.8C45.7 254.7 91.3 240.3 137 240.8C182.7 241.3 228.3 256.7 274 258.5C319.7 260.3 365.3 248.7 411.2 244.2C457 239.7 503 242.3 548.8 241.7C594.7 241 640.3 237 686 240C731.7 243 777.3 253 823 253.8C868.7 254.7 914.3 246.3 937.2 242.2L960 238L960 301L937.2 301C914.3 301 868.7 301 823 301C777.3 301 731.7 301 686 301C640.3 301 594.7 301 548.8 301C503 301 457 301 411.2 301C365.3 301 319.7 301 274 301C228.3 301 182.7 301 137 301C91.3 301 45.7 301 22.8 301L0 301Z" fill="#13b9ac"></path></svg>