<svg id="visual" viewBox="0 0 960 200" width="960" height="200" xmlns="http://www.w3.org/2000/svg" xmlns:xlink="http://www.w3.org/1999/xlink" version="1.1"><rect x="0" y="0" width="960" height="200" fill="#191b29"></rect><path d="M0 51L8.8 50C17.7 49 35.3 47 53.2 52.2C71 57.3 89 69.7 106.8 69.5C124.7 69.3 142.3 56.7 160 56.2C177.7 55.7 195.3 67.3 213.2 68.2C231 69 249 59 266.8 59.2C284.7 59.3 302.3 69.7 320 77C337.7 84.3 355.3 88.7 373.2 82.7C391 76.7 409 60.3 426.8 56.2C444.7 52 462.3 60 480 67.5C497.7 75 515.3 82 533.2 77.3C551 72.7 569 56.3 586.8 51.3C604.7 46.3 622.3 52.7 640 61.3C657.7 70 675.3 81 693.2 85.7C711 90.3 729 88.7 746.8 86.7C764.7 84.7 782.3 82.3 800 74.2C817.7 66 835.3 52 853.2 45C871 38 889 38 906.8 41.2C924.7 44.3 942.3 50.7 951.2 53.8L960 57L960 201L951.2 201C942.3 201 924.7 201 906.8 201C889 201 871 201 853.2 201C835.3 201 817.7 201 800 201C782.3 201 764.7 201 746.8 201C729 201 711 201 693.2 201C675.3 201 657.7 201 640 201C622.3 201 604.7 201 586.8 201C569 201 551 201 533.2 201C515.3 201 497.7 201 480 201C462.3 201 444.7 201 426.8 201C409 201 391 201 373.2 201C355.3 201 337.7 201 320 201C302.3 201 284.7 201 266.8 201C249 201 231 201 213.2 201C195.3 201 177.7 201 160 201C142.3 201 124.7 201 106.8 201C89 201 71 201 53.2 201C35.3 201 17.7 201 8.8 201L0 201Z" fill="#45dacc"></path><path d="M0 91L8.8 85.5C17.7 80 35.3 69 53.2 68.8C71 68.7 89 79.3 106.8 82.8C124.7 86.3 142.3 82.7 160 81.3C177.7 80 195.3 81 213.2 86.3C231 91.7 249 101.3 266.8 100.8C284.7 100.3 302.3 89.7 320 86.3C337.7 83 355.3 87 373.2 90.2C391 93.3 409 95.7 426.8 90.7C444.7 85.7 462.3 73.3 480 70.7C497.7 68 515.3 75 533.2 81.5C551 88 569 94 586.8 95.3C604.7 96.7 622.3 93.3 640 91C657.7 88.7 675.3 87.3 693.2 85.2C711 83 729 80 746.8 84.3C764.7 88.7 782.3 100.3 800 105C817.7 109.7 835.3 107.3 853.2 106.3C871 105.3 889 105.7 906.8 103.3C924.7 101 942.3 96 951.2 93.5L960 91L960 201L951.2 201C942.3 201 924.7 201 906.8 201C889 201 871 201 853.2 201C835.3 201 817.7 201 800 201C782.3 201 764.7 201 746.8 201C729 201 711 201 693.2 201C675.3 201 657.7 201 640 201C622.3 201 604.7 201 586.8 201C569 201 551 201 533.2 201C515.3 201 497.7 201 480 201C462.3 201 444.7 201 426.8 201C409 201 391 201 373.2 201C355.3 201 337.7 201 320 201C302.3 201 284.7 201 266.8 201C249 201 231 201 213.2 201C195.3 201 177.7 201 160 201C142.3 201 124.7 201 106.8 201C89 201 71 201 53.2 201C35.3 201 17.7 201 8.8 201L0 201Z" fill="#75e1d4"></path><path d="M0 103L8.8 101.5C17.7 100 35.3 97 53.2 95C71 93 89 92 106.8 96.3C124.7 100.7 142.3 110.3 160 115.8C177.7 121.3 195.3 122.7 213.2 123.5C231 124.3 249 124.7 266.8 120C284.7 115.3 302.3 105.7 320 100.3C337.7 95 355.3 94 373.2 96.7C391 99.3 409 105.7 426.8 110.7C444.7 115.7 462.3 119.3 480 119.3C497.7 119.3 515.3 115.7 533.2 114C551 112.3 569 112.7 586.8 112.2C604.7 111.7 622.3 110.3 640 108.5C657.7 106.7 675.3 104.3 693.2 101.2C711 98 729 94 746.8 90.7C764.7 87.3 782.3 84.7 800 87.8C817.7 91 835.3 100 853.2 103.8C871 107.7 889 106.3 906.8 106C924.7 105.7 942.3 106.3 951.2 106.7L960 107L960 201L951.2 201C942.3 201 924.7 201 906.8 201C889 201 871 201 853.2 201C835.3 201 817.7 201 800 201C782.3 201 764.7 201 746.8 201C729 201 711 201 693.2 201C675.3 201 657.7 201 640 201C622.3 201 604.7 201 586.8 201C569 201 551 201 533.2 201C515.3 201 497.7 201 480 201C462.3 201 444.7 201 426.8 201C409 201 391 201 373.2 201C355.3 201 337.7 201 320 201C302.3 201 284.7 201 266.8 201C249 201 231 201 213.2 201C195.3 201 177.7 201 160 201C142.3 201 124.7 201 106.8 201C89 201 71 201 53.2 201C35.3 201 17.7 201 8.8 201L0 201Z" fill="#99e9dc"></path><path d="M0 140L8.8 138C17.7 136 35.3 132 53.2 132.5C71 133 89 138 106.8 139.2C124.7 140.3 142.3 137.7 160 138C177.7 138.3 195.3 141.7 213.2 138.2C231 134.7 249 124.3 266.8 118.8C284.7 113.3 302.3 112.7 320 111.8C337.7 111 355.3 110 373.2 115C391 120 409 131 426.8 132.8C444.7 134.7 462.3 127.3 480 124C497.7 120.7 515.3 121.3 533.2 124.7C551 128 569 134 586.8 132.5C604.7 131 622.3 122 640 120.5C657.7 119 675.3 125 693.2 128.3C711 131.7 729 132.3 746.8 132.8C764.7 133.3 782.3 133.7 800 132.8C817.7 132 835.3 130 853.2 127.7C871 125.3 889 122.7 906.8 119.3C924.7 116 942.3 112 951.2 110L960 108L960 201L951.2 201C942.3 201 924.7 201 906.8 201C889 201 871 201 853.2 201C835.3 201 817.7 201 800 201C782.3 201 764.7 201 746.8 201C729 201 711 201 693.2 201C675.3 201 657.7 201 640 201C622.3 201 604.7 201 586.8 201C569 201 551 201 533.2 201C515.3 201 497.7 201 480 201C462.3 201 444.7 201 426.8 201C409 201 391 201 373.2 201C355.3 201 337.7 201 320 201C302.3 201 284.7 201 266.8 201C249 201 231 201 213.2 201C195.3 201 177.7 201 160 201C142.3 201 124.7 201 106.8 201C89 201 71 201 53.2 201C35.3 201 17.7 201 8.8 201L0 201Z" fill="#b8f0e6"></path><path d="M0 166L8.8 161.5C17.7 157 35.3 148 53.2 148C71 148 89 157 106.8 157.5C124.7 158 142.3 150 160 144.7C177.7 139.3 195.3 136.7 213.2 135.7C231 134.7 249 135.3 266.8 137C284.7 138.7 302.3 141.3 320 146C337.7 150.7 355.3 157.3 373.2 160.5C391 163.7 409 163.3 426.8 159.2C444.7 155 462.3 147 480 145.2C497.7 143.3 515.3 147.7 533.2 152C551 156.3 569 160.7 586.8 161C604.7 161.3 622.3 157.7 640 152C657.7 146.3 675.3 138.7 693.2 136.8C711 135 729 139 746.8 141C764.7 143 782.3 143 800 142.5C817.7 142 835.3 141 853.2 141C871 141 889 142 906.8 146.3C924.7 150.7 942.3 158.3 951.2 162.2L960 166L960 201L951.2 201C942.3 201 924.7 201 906.8 201C889 201 871 201 853.2 201C835.3 201 817.7 201 800 201C782.3 201 764.7 201 746.8 201C729 201 711 201 693.2 201C675.3 201 657.7 201 640 201C622.3 201 604.7 201 586.8 201C569 201 551 201 533.2 201C515.3 201 497.7 201 480 201C462.3 201 444.7 201 426.8 201C409 201 391 201 373.2 201C355.3 201 337.7 201 320 201C302.3 201 284.7 201 266.8 201C249 201 231 201 213.2 201C195.3 201 177.7 201 160 201C142.3 201 124.7 201 106.8 201C89 201 71 201 53.2 201C35.3 201 17.7 201 8.8 201L0 201Z" fill="#d5f6ef"></path><path d="M0 174L8.8 174.7C17.7 175.3 35.3 176.7 53.2 174.5C71 172.3 89 166.7 106.8 165.2C124.7 163.7 142.3 166.3 160 167C177.7 167.7 195.3 166.3 213.2 167C231 167.7 249 170.3 266.8 170.7C284.7 171 302.3 169 320 169.2C337.7 169.3 355.3 171.7 373.2 171.2C391 170.7 409 167.3 426.8 165C444.7 162.7 462.3 161.3 480 164.7C497.7 168 515.3 176 533.2 176.3C551 176.7 569 169.3 586.8 168.8C604.7 168.3 622.3 174.7 640 176.7C657.7 178.7 675.3 176.3 693.2 176.8C711 177.3 729 180.7 746.8 182.3C764.7 184 782.3 184 800 179.3C817.7 174.7 835.3 165.3 853.2 161.5C871 157.7 889 159.3 906.8 161.3C924.7 163.3 942.3 165.7 951.2 166.8L960 168L960 201L951.2 201C942.3 201 924.7 201 906.8 201C889 201 871 201 853.2 201C835.3 201 817.7 201 800 201C782.3 201 764.7 201 746.8 201C729 201 711 201 693.2 201C675.3 201 657.7 201 640 201C622.3 201 604.7 201 586.8 201C569 201 551 201 533.2 201C515.3 201 497.7 201 480 201C462.3 201 444.7 201 426.8 201C409 201 391 201 373.2 201C355.3 201 337.7 201 320 201C302.3 201 284.7 201 266.8 201C249 201 231 201 213.2 201C195.3 201 177.7 201 160 201C142.3 201 124.7 201 106.8 201C89 201 71 201 53.2 201C35.3 201 17.7 201 8.8 201L0 201Z" fill="#f0fdfa"></path></svg>